<?xml version="1.0" encoding="UTF-8" standalone="no"?>
<!-- Created with Inkscape (http://www.inkscape.org/) -->

<svg
   xmlns:dc="http://purl.org/dc/elements/1.1/"
   xmlns:cc="http://creativecommons.org/ns#"
   xmlns:rdf="http://www.w3.org/1999/02/22-rdf-syntax-ns#"
   xmlns:svg="http://www.w3.org/2000/svg"
   xmlns="http://www.w3.org/2000/svg"
   xmlns:sodipodi="http://sodipodi.sourceforge.net/DTD/sodipodi-0.dtd"
   xmlns:inkscape="http://www.inkscape.org/namespaces/inkscape"
   width="8.5in"
   height="11in"
   viewBox="0 0 215.9 279.4"
   version="1.1"
   id="svg8"
   inkscape:version="0.92.1 r15371"
   sodipodi:docname="Icono.svg">
  <defs
     id="defs2" />
  <sodipodi:namedview
     id="base"
     pagecolor="#ffffff"
     bordercolor="#666666"
     borderopacity="1.0"
     inkscape:pageopacity="0.0"
     inkscape:pageshadow="2"
     inkscape:zoom="0.35355339"
     inkscape:cx="279.34645"
     inkscape:cy="431.87074"
     inkscape:document-units="mm"
     inkscape:current-layer="layer1"
     showgrid="false"
     fit-margin-top="0"
     fit-margin-left="0"
     fit-margin-right="0"
     fit-margin-bottom="0"
     inkscape:window-width="1366"
     inkscape:window-height="696"
     inkscape:window-x="0"
     inkscape:window-y="43"
     inkscape:window-maximized="1"
     units="in" />
  <metadata
     id="metadata5">
    <rdf:RDF>
      <cc:Work
         rdf:about="">
        <dc:format>image/svg+xml</dc:format>
        <dc:type
           rdf:resource="http://purl.org/dc/dcmitype/StillImage" />
        <dc:title></dc:title>
      </cc:Work>
    </rdf:RDF>
  </metadata>
  <g
     inkscape:label="Layer 1"
     inkscape:groupmode="layer"
     id="layer1"
     transform="translate(-55.353822,79.38051)">
    <g
       id="g4583"
       transform="matrix(2.9298687,0,0,3.8210539,-30.356106,-613.68628)"
       inkscape:export-xdpi="67.120003"
       inkscape:export-ydpi="67.120003">
      <path
         sodipodi:nodetypes="cccc"
         inkscape:connector-curvature="0"
         id="path4507"
         d="m 47.741093,167.36085 c 5.760651,-20.87892 31.627263,-18.01368 35.805695,0.18747 14.606641,3.61638 14.506071,25.51016 -17.434187,26.99487 -25.283407,0.0519 -37.348947,-19.10559 -18.371508,-27.18234 z"
         style="opacity:1;fill:#00587f;fill-opacity:1;fill-rule:evenodd;stroke:none;stroke-width:0.26458332px;stroke-linecap:butt;stroke-linejoin:miter;stroke-opacity:1" />
      <rect
         ry="1.9156424"
         y="173.42668"
         x="71.940063"
         height="7.8754191"
         width="3.8312848"
         id="rect4511"
         style="opacity:1;fill:#bfbfbf;fill-opacity:1;fill-rule:evenodd;stroke:none;stroke-width:2;stroke-linejoin:round;stroke-miterlimit:4;stroke-dasharray:none;stroke-opacity:1;paint-order:fill markers stroke" />
      <rect
         ry="1.9156425"
         y="173.42668"
         x="55.661533"
         height="7.8754191"
         width="3.831285"
         id="rect4511-3"
         style="opacity:1;fill:#bfbfbf;fill-opacity:1;fill-rule:evenodd;stroke:none;stroke-width:2;stroke-linejoin:round;stroke-miterlimit:4;stroke-dasharray:none;stroke-opacity:1;paint-order:fill markers stroke" />
      <rect
         ry="1.9156425"
         y="159.95488"
         x="63.768471"
         height="7.8754191"
         width="3.831285"
         id="rect4511-6"
         style="opacity:1;fill:#bfbfbf;fill-opacity:1;fill-rule:evenodd;stroke:none;stroke-width:2;stroke-linejoin:round;stroke-miterlimit:4;stroke-dasharray:none;stroke-opacity:1;paint-order:fill markers stroke" />
      <rect
         ry="2.5599627"
         y="161.66237"
         x="58.184113"
         height="23.995832"
         width="15"
         id="rect4509"
         style="opacity:1;fill:#ffffff;fill-opacity:1;fill-rule:evenodd;stroke:none;stroke-width:2.43881154;stroke-linejoin:round;stroke-miterlimit:4;stroke-dasharray:none;stroke-opacity:1;paint-order:fill markers stroke" />
      <g
         style="fill:#00587f;fill-opacity:1"
         transform="matrix(0.006108,0,0,0.006108,59.875142,168.62246)"
         id="g4540">
        <g
           style="fill:#00587f;fill-opacity:1"
           id="g4536">
          <path
             style="fill:#00587f;fill-opacity:1"
             inkscape:connector-curvature="0"
             d="M 1601.247,346.806 C 1100.163,-32.076 476.129,34.754 28.586,430.269 527.357,-79.788 1282.787,-121.474 1848.391,378.346 c 70.991,62.726 -23.872,170.238 -94.937,107.447 -11.544,-10.199 -69.991,-76.517 -152.207,-138.987 z"
             id="path4528" />
          <path
             style="fill:#00587f;fill-opacity:1"
             inkscape:connector-curvature="0"
             d="M 1577.723,651.574 C 1164.484,295.2 637.719,348.886 299.253,703.498 233.811,772.062 129.971,673.086 195.48,604.451 485.771,300.321 1142.607,195.677 1577.723,651.574 Z"
             id="path4530" />
          <path
             style="fill:#00587f;fill-opacity:1"
             inkscape:connector-curvature="0"
             d="M 1307.056,924.803 C 1069.278,663.303 724.59,664.812 471.197,872.88 c 251.307,-276.408 640.97,-292.998 926.025,-58.95 93.844,77.047 -23.243,183.444 -90.166,110.873 z"
             id="path4532" />
          <path
             style="fill:#00587f;fill-opacity:1"
             inkscape:connector-curvature="0"
             d="m 1135.112,1094.185 c -122.734,-86.827 -283.626,-87.675 -393.248,51.923 -24.927,31.741 -70.466,36.849 -101.731,12.298 -139.157,-109.276 278.961,-339.25 494.979,-64.221 z"
             id="path4534" />
        </g>
        <circle
           style="fill:#00587f;fill-opacity:1"
           cx="951.04303"
           cy="1440.722"
           r="184.07001"
           id="circle4538" />
      </g>
    </g>
  </g>
</svg>
